<svg xmlns="http://www.w3.org/2000/svg" xmlns:xlink="http://www.w3.org/1999/xlink" aria-hidden="true" role="img" class="iconify iconify--logos" width="35.93" height="32" preserveAspectRatio="xMidYMid meet" viewBox="0 0 256 228"><path fill="#00D8FF" d="M210.483 75.988c-1.832-1.832-4.8-1.832-6.632 0l-13.264 13.264c-1.832 1.832-1.832 4.8 0 6.632l13.264 13.264c1.832 1.832 4.8 1.832 6.632 0l13.264-13.264c1.832-1.832 1.832-4.8 0-6.632l-13.264-13.264z"></path><path fill="#00D8FF" d="M128 0C57.308 0 0 57.308 0 128s57.308 128 128 128s128-57.308 128-128S198.692 0 128 0zm0 32c53.02 0 96 42.98 96 96s-42.98 96-96 96s-96-42.98-96-96s42.98-96 96-96z"></path><path fill="#00D8FF" d="M128 64c-35.346 0-64 28.654-64 64s28.654 64 64 64s64-28.654 64-64s-28.654-64-64-64zm0 32c17.673 0 32 14.327 32 32s-14.327 32-32 32s-32-14.327-32-32s14.327-32 32-32z"></path></svg> 